<?xml version="1.0" encoding="UTF-8"?>
<!-- Created with Inkscape (http://www.inkscape.org/) -->
<svg width="600" height="400" version="1.1" viewBox="0 0 600 400" xmlns="http://www.w3.org/2000/svg">
 <rect width="600" height="400" ry="40" fill="#e01b24" stroke="#3584e4" stroke-linecap="round" stroke-linejoin="round"/>
 <path d="m90.024 125c-8.2838 7.5e-4 -14.999 6.716-15 15v45h30v-30h30v10.488l-57.481 86.191c-6.6428 9.9682 0.5025 23.318 12.481 23.32h75v-30h-46.992l44.473-66.68c1.6425-2.464 2.5192-5.359 2.5192-8.3204v-30c-7.5e-4 -8.2839-6.7162-14.999-15-15zm120 0c-8.2838 7.5e-4 -14.999 6.7161-15 15v120c0 8.2839 6.7162 14.999 15 15h60c8.2838-7.5e-4 14.999-6.716 15-15v-120c-7.5e-4 -8.284-6.7162-14.999-15-15zm120 0c-8.2838 7.5e-4 -14.999 6.716-15 15v45h30v-30h30v10.488l-57.481 86.191c-6.6428 9.9682 0.5025 23.318 12.481 23.32h75v-30h-46.992l44.473-66.68c1.6425-2.464 2.5192-5.359 2.5192-8.3204v-30c-7.5e-4 -8.2839-6.7162-14.999-15-15zm151.46 0.117c-4.4602-0.44925-8.8882 1.1197-12.07 4.2773l-30 30-10.605 10.606 21.211 21.211 10.606-10.605 4.3942-4.3946v68.789h-30v30h90v-30h-30v-105c0-6.0554-3.6638-11.51-9.258-13.828-1.3658-0.56025-2.8072-0.9156-4.2772-1.0548zm-256.46 29.883h30v90h-30z" color="#000000" fill="#f6d32d" stroke-linecap="square" stroke-linejoin="round" stroke-width="30" style="-inkscape-stroke:none"/>
</svg>
