<?xml version="1.0" encoding="UTF-8"?>
<!-- Created with Inkscape (http://www.inkscape.org/) -->
<svg width="600" height="400" version="1.1" viewBox="0 0 600 400" xmlns="http://www.w3.org/2000/svg">
 <rect width="600" height="400" ry="40" fill="#33d17a" stroke="#3584e4" stroke-linecap="round" stroke-linejoin="round"/>
 <path d="m90.022 125c-8.2837 7.9e-4 -14.999 6.716-15 15v44.998h30v-30h30v10.488l-57.48 86.189c-6.6425 9.9682 0.5017 23.317 12.48 23.32h74.998v-30h-46.991l44.472-66.679c1.6425-2.4639 2.5192-5.3588 2.5193-8.3201v-30c-8e-4 -8.2837-6.7158-14.999-15-15zm120 0c-8.2837 8.9e-4 -14.999 6.716-15 15v120c8e-4 8.2837 6.7158 14.999 15 15h59.998c8.2837-8e-4 14.999-6.716 15-15v-120c-8e-4 -8.2837-6.716-14.999-15-15zm120 0c-8.2837 7.9e-4 -14.999 6.716-15 15v44.998h30v-30h30v10.488l-57.48 86.189c-6.6425 9.9682 0.5017 23.317 12.48 23.32h74.998v-30h-46.991l44.472-66.679c1.6425-2.4639 2.5192-5.3588 2.5193-8.3201v-30c-8e-4 -8.2837-6.7158-14.999-15-15zm-105 30h30v89.998h-30zm225.01-29.998c-8.2837 8e-4 -14.999 6.716-15 15v44.998h30v-30h30v10.488l-57.48 86.189c-6.6425 9.9682 0.5016 23.317 12.48 23.32h74.998v-30h-46.99l44.472-66.679c1.6426-2.4639 2.5192-5.3588 2.5194-8.3201v-30c-8e-4 -8.2837-6.7158-14.999-15-15z" color="#000000" fill="#3584e4" stroke-linecap="square" stroke-linejoin="round" stroke-width="30" style="-inkscape-stroke:none"/>
</svg>
