<?xml version="1.0" encoding="UTF-8"?>
<!-- Created with Inkscape (http://www.inkscape.org/) -->
<svg width="600" height="400" version="1.1" viewBox="0 0 600 400" xmlns="http://www.w3.org/2000/svg">
 <rect width="600" height="400" ry="40" fill="#ff7800" stroke="#3584e4" stroke-linecap="round" stroke-linejoin="round"/>
 <path d="m90.022 125c-8.2834 7.9e-4 -14.998 6.7157-14.999 14.999v44.997h29.999v-29.999h29.999v10.488l-57.477 86.186c-6.6422 9.9678 0.5016 23.316 12.48 23.319h74.995v-29.999h-46.989l44.47-66.676c1.6424-2.4638 2.5191-5.3586 2.5192-8.3198v-29.999c-8e-4 -8.2834-6.7155-14.998-14.999-14.999zm119.99 0c-8.2834 8.9e-4 -14.998 6.7157-14.999 14.999v119.99c8e-4 8.2834 6.7155 14.998 14.999 14.999h59.996c8.2834-8e-4 14.998-6.7157 14.999-14.999v-119.99c-8e-4 -8.2834-6.7157-14.998-14.999-14.999zm119.99 0c-8.2834 7.9e-4 -14.998 6.7157-14.999 14.999v44.997h29.999v-29.999h29.999v10.488l-57.477 86.186c-6.6422 9.9678 0.5016 23.316 12.48 23.319h74.995v-29.999h-46.989l44.47-66.676c1.6424-2.4638 2.519-5.3586 2.5192-8.3198v-29.999c-8e-4 -8.2834-6.7155-14.998-14.999-14.999zm-104.99 29.999h29.999v89.995h-29.999zm225-29.997c-8.2837 8.3e-4 -14.999 6.7158-14.999 14.999v29.999h29.999v-14.999h29.999v8.7887l-25.605 25.605c-9.4432 9.4496-2.7542 25.6 10.605 25.605h14.999v29.999h-29.999v-14.999h-29.999v29.999c8e-4 8.2836 6.7156 14.999 14.999 14.999h59.998c8.2835-8.3e-4 14.998-6.7158 14.999-14.999v-59.998c-1.1599-6.0235-5.8706-10.734-11.894-11.894l7.4997-7.4997c2.8126-2.8127 4.3933-6.6273 4.3942-10.605v-29.999c-9e-4 -8.2836-6.7159-14.999-14.999-14.999z" color="#000000" fill="#9141ac" stroke-linecap="square" stroke-linejoin="round" stroke-width="29.999" style="-inkscape-stroke:none"/>
</svg>
