<?xml version="1.0" encoding="UTF-8"?>
<!-- Created with Inkscape (http://www.inkscape.org/) -->
<svg width="600" height="400" version="1.1" viewBox="0 0 600 400" xmlns="http://www.w3.org/2000/svg">
 <rect width="600" height="400" ry="40" fill="#f6d32d" stroke="#3584e4" stroke-linecap="round" stroke-linejoin="round"/>
 <path d="m419.99 125v74.997c1e-3 8.2828 6.7155 14.997 14.998 14.998h29.977l-0.026 59.99 29.997 0.013 0.029-60.003h15.017v-30h-15.005v-14.992l-30-0.013v15.005h-14.992v-59.997h-29.997zm-329.97 7e-3c-8.2832 7.9e-4 -14.997 6.7151-14.998 14.998v44.995h29.997v-29.997h30v10.485l-57.476 86.185c-6.642 9.9676 0.50062 23.317 12.478 23.32h74.995v-29.997h-46.989l44.468-66.673c1.6422-2.4638 2.5195-5.36 2.5197-8.3211v-29.997c-8.1e-4 -8.2832-6.7149-14.997-14.998-14.998h-59.997zm119.99 0c-8.2832 8.9e-4 -14.997 6.7151-14.998 14.998v119.99c8.2e-4 8.2832 6.7149 14.997 14.998 14.998h59.997c8.2833-7.9e-4 14.997-6.7151 14.998-14.998v-119.99c-8.1e-4 -8.2832-6.7149-14.998-14.998-14.998zm119.99 0c-8.2832 7.9e-4 -15.001 6.7151-15.001 14.998v44.995h30v-29.997h29.997v10.485l-57.476 86.185c-6.6421 9.9676 0.50371 23.317 12.482 23.32h74.992v-29.997h-46.989l44.468-66.673c1.6424-2.4638 2.5195-5.36 2.5197-8.3211v-29.997c-8.1e-4 -8.2832-6.7149-14.997-14.998-14.998h-59.993zm-104.99 29.997h30v89.993h-30z" color="#000000" fill="#3584e4" stroke-linecap="square" stroke-linejoin="round" stroke-width="1.6249" style="-inkscape-stroke:none"/>
</svg>
