<?xml version="1.0" encoding="UTF-8"?>
<!-- Created with Inkscape (http://www.inkscape.org/) -->
<svg width="600" height="400" version="1.1" viewBox="0 0 600 400" xmlns="http://www.w3.org/2000/svg">
 <rect width="600" height="400" ry="40" fill="#3584e4" stroke="#3584e4" stroke-linecap="round" stroke-linejoin="round"/>
 <path d="m434.87 124.97v74.965h59.973v44.982h-29.987v-14.995h-29.987v29.987c8.1e-4 8.2802 6.7146 14.994 14.995 14.995h59.973c8.2802-8.3e-4 14.991-6.7147 14.992-14.995v-74.965c-8.2e-4 -8.2802-6.7115-14.994-14.992-14.995h-44.982v-14.992h59.973v-29.987zm-344.81 0.0476c-8.2814 7.9e-4 -14.994 6.7135-14.995 14.995v44.985h29.99v-29.99h29.993v10.483l-57.464 86.165c-6.6405 9.9653 0.50051 23.311 12.476 23.314h74.978v-29.99h-46.977l44.458-66.659c1.6419-2.4632 2.5191-5.3587 2.5191-8.3192v-29.99c-6.5e-4 -8.2814-6.7134-14.994-14.995-14.995zm119.96 0c-8.2814 8.9e-4 -14.994 6.7135-14.995 14.995v119.96c8.2e-4 8.2814 6.7136 14.994 14.995 14.995h59.983c8.2814-8e-4 14.994-6.7135 14.995-14.995v-119.96c-8.1e-4 -8.2814-6.7136-14.994-14.995-14.995zm119.97 0c-8.2814 7.9e-4 -14.997 6.7135-14.998 14.995v44.985h29.993v-29.99h29.99v10.483l-57.464 86.165c-6.6406 9.9653 0.50359 23.311 12.479 23.314h74.975v-29.99h-46.977l44.458-66.659c1.642-2.4632 2.5191-5.3587 2.5193-8.3192v-29.99c-8.1e-4 -8.2814-6.7136-14.994-14.995-14.995zm-104.97 29.99h29.996v89.973h-29.996z" fill="#9141ac" stroke-width="1.6245" style="-inkscape-stroke:none"/>
</svg>
