<?xml version="1.0" encoding="UTF-8"?>
<!-- Created with Inkscape (http://www.inkscape.org/) -->
<svg width="1920" height="400" version="1.1" viewBox="0 0 1920 400" xmlns="http://www.w3.org/2000/svg">
 <path d="m433.6 315.39 30.566-24.655-6.1431-39.892 6.1431-39.892-28.417-28.663-18.479-35.884-39.836-6.4864-36.043-18.168-36.041 18.169-39.838 6.4859-18.479 35.884-28.417 28.663 6.1431 39.892-6.1431 39.892 30.566 24.655z" color="#000000" fill="#f6d32d" stroke-width="18.442px" style="-inkscape-stroke:none"/>
 <g stroke-width="18.462">
  <path d="m1043.1 84.616c-5.098 4e-5 -9.2307 4.1328-9.2307 9.2308s4.1327 9.2307 9.2307 9.2308c5.098 2e-5 9.2308-4.1327 9.2308-9.2308s-4.1328-9.2308-9.2308-9.2308zm64.615 0v120c5e-4 5.0978 4.133 9.2303 9.2308 9.2308h27.692v-18.462h-18.462v-55.385h18.462v-18.462h-18.462v-36.923zm129.23 0v129.23h18.462v-18.462h18.462v18.462h18.462v-27.692c-5e-4 -5.0978-4.133-9.2303-9.2308-9.2308h-17.38l16.406-32.776c2.2905-4.5696 0.4314-10.13-4.1467-12.404-2.1847-1.0918-4.713-1.2733-7.0312-0.50474-2.3263 0.77964-4.2466 2.4534-5.3366 4.6514l-10.204 20.409v-71.683zm83.077 0c-5.098-2e-5 -9.2308 4.1327-9.2308 9.2308s4.1328 9.2308 9.2308 9.2308c5.098 2e-5 9.2308-4.1327 9.2308-9.2308s-4.1328-9.2308-9.2308-9.2308zm-683.08 36.923c-5.0978 5.1e-4 -9.2303 4.133-9.2308 9.2308v36.923c5.1e-4 5.0978 4.133 9.2303 9.2308 9.2308h27.692v18.462h-36.923v18.462h46.154c5.0978-5.1e-4 9.2303-4.133 9.2308-9.2308v-36.923c-5.1e-4 -5.0978-4.133-9.2303-9.2308-9.2308h-27.692v-18.462h36.923v-18.462h-9.2308zm64.615 0v92.308h46.154c5.0978-5.1e-4 9.2303-4.133 9.2308-9.2308v-83.077h-18.462v73.846h-18.462v-73.846zm73.846 0v92.308h18.462v-73.846h18.462v73.846h18.462v-83.077c-5.1e-4 -5.0978-4.133-9.2303-9.2308-9.2308h-27.692zm83.077 0c-5.0978 5.1e-4 -9.2303 4.133-9.2308 9.2308v73.846c5.1e-4 5.0978 4.133 9.2303 9.2308 9.2308h36.923c5.0978-5.1e-4 9.2302-4.133 9.2308-9.2308v-73.846c-5.1e-4 -5.0978-4.133-9.2303-9.2308-9.2308zm101.54 0v110.77h18.462v-18.462h27.692c5.0978-4.9e-4 9.2303-4.133 9.2308-9.2308v-73.846c-5e-4 -5.0978-4.133-9.2303-9.2308-9.2308h-27.692zm73.846 0v92.308h18.462v-92.308zm138.46 0c-5.0978 4.9e-4 -9.2303 4.133-9.2308 9.2308v73.846c5e-4 5.0978 4.133 9.2303 9.2308 9.2308h36.923c5.0978-5.5e-4 9.2302-4.133 9.2307-9.2308v-73.846c-5e-4 -5.0978-4.1329-9.2302-9.2307-9.2308zm138.46 0v92.308h18.462v-92.308zm73.846 0v110.77h18.462v-18.462h27.692c5.0978-4.9e-4 9.2303-4.133 9.2308-9.2308v-73.846c-5e-4 -5.0978-4.133-9.2303-9.2308-9.2308h-27.692zm83.077 0c-5.0978 4.9e-4 -9.2303 4.133-9.2308 9.2308v73.846c5e-4 5.0978 4.133 9.2303 9.2308 9.2308h36.923c5.0978-4.9e-4 9.2303-4.133 9.2308-9.2308v-73.846c-5e-4 -5.0978-4.133-9.2303-9.2308-9.2308zm64.615 0v92.308h18.462v-73.846h18.462v73.846h18.462v-83.077c-5e-4 -5.0978-4.133-9.2303-9.2308-9.2308h-27.692zm83.077 0v18.462h27.692v18.462h-27.692c-5.0978 4.9e-4 -9.2303 4.133-9.2308 9.2308v36.923c5e-4 5.0978 4.133 9.2303 9.2308 9.2308h46.154v-83.077c-5e-4 -5.0978-4.133-9.2303-9.2308-9.2308h-27.692zm-747.69 18.462h18.462v55.385h-18.462zm110.77 0h18.462v55.385h-18.462zm203.08 0h18.462v55.385h-18.462zm221.54 0h18.462v55.385h-18.462zm73.846 0h18.462v55.385h-18.462zm147.69 36.923h18.462v18.462h-18.462z" color="#000000" fill="#3584e4" stroke-linecap="square" stroke-linejoin="round" style="-inkscape-stroke:none"/>
  <path d="m1707.7 232.31v46.156a9.2319 9.2319 0 0 0 9.2305 9.2305h18.449l-0.016 36.92 18.461 8e-3 0.018-36.928h9.2422v-18.463h-9.2344v-9.2266l-18.463-8e-3v9.2344h-9.2266v-36.924h-18.461zm-1080 4e-3v83.076c5.1e-4 5.0978 4.1346 9.23 9.2324 9.2305h27.692v-18.461h-18.461v-36.924h18.461v-18.461h-18.461v-18.461h-18.463zm129.23 0v92.306h18.461v-18.461h18.461v18.461h18.463v-27.692c-5e-4 -5.0978-4.1346-9.2319-9.2324-9.2324h-14.639l11.936-11.934c3.6039-3.6047 3.6039-9.4481 0-13.053-1.7308-1.7312-4.0793-2.7047-6.5274-2.7051-2.448 3.7e-4 -4.7946 0.97389-6.5254 2.7051l-11.936 11.934v-42.33h-18.461zm83.076 0c-5.098 0-9.2305 4.1325-9.2305 9.2305s4.1325 9.2305 9.2305 9.2305 9.2305-4.1325 9.2305-9.2305-4.1325-9.2305-9.2305-9.2305zm433.85 0v36.922h-27.691c-5.0978 5.5e-4 -9.23 4.1327-9.2305 9.2305v36.924c5e-4 5.0978 4.1327 9.2299 9.2305 9.2305h46.154v-92.306h-18.463zm230.77 0c-5.0978 4.9e-4 -9.2299 4.1327-9.2304 9.2305v27.692h18.461v-18.461h18.463v6.4531l-35.373 53.041c-4.0877 6.1344 0.3081 14.35 7.6797 14.352h46.154v-18.461h-28.918l27.367-41.033c1.0107-1.5163 1.5506-3.2987 1.5507-5.1211v-18.461c-5e-4 -5.0978-4.1326-9.2299-9.2304-9.2305h-36.924zm73.846 0c-5.0978 5.5e-4 -9.2299 4.1327-9.2304 9.2305v73.846c5e-4 5.0978 4.1326 9.2299 9.2304 9.2305h36.924c5.0978-4.9e-4 9.2299-4.1327 9.2304-9.2305v-73.846c-5e-4 -5.0978-4.1326-9.23-9.2304-9.2305zm73.848 0c-5.0978 4.9e-4 -9.2319 4.1327-9.2324 9.2305v27.692h18.463v-18.461h18.461v6.4531l-35.373 53.041c-4.0878 6.1344 0.31 14.35 7.6816 14.352h46.152v-18.461h-28.918l27.367-41.033c1.0108-1.5163 1.5506-3.2987 1.5507-5.1211v-18.461c-5e-4 -5.0978-4.1326-9.2299-9.2304-9.2305h-36.922zm-64.617 18.461h18.463v55.385h-18.463zm-895.38 18.461c-5.0978 5.1e-4 -9.2319 4.1327-9.2324 9.2305v36.924c5.1e-4 5.0978 4.1346 9.23 9.2324 9.2305h36.922c5.0978-5.1e-4 9.23-4.1327 9.2305-9.2305v-36.924c-5e-4 -5.0978-4.1327-9.23-9.2305-9.2305zm138.46 0v55.385h18.461v-55.385zm73.846 0v73.846h18.461v-18.461h27.693c5.0978-5.1e-4 9.23-4.1327 9.2305-9.2305v-36.924c-5e-4 -5.0978-4.1327-9.23-9.2305-9.2305h-27.693zm83.076 0c-5.0978 5.1e-4 -9.23 4.1327-9.2305 9.2305v36.924c5e-4 5.0978 4.1327 9.23 9.2305 9.2305h36.924c5.0978-4.9e-4 9.23-4.1327 9.2305-9.2305v-36.924c-5e-4 -5.0978-4.1327-9.23-9.2305-9.2305zm64.617 0v55.384h18.461v-36.924h18.461v36.924h18.461v-46.154c-5e-4 -5.0978-4.1327-9.23-9.2305-9.2305h-46.152zm101.54 0c-2.448 4.5e-4 -4.7945 0.97396-6.5254 2.7051l-18.463 18.461c-1.7311 1.7309-2.7026 4.0794-2.7031 6.5274v18.461c5e-4 5.0978 4.1327 9.23 9.2305 9.2305h46.154v-46.154c-5e-4 -5.0978-4.1327-9.23-9.2305-9.2305h-18.463zm184.62 0c-2.448 4.8e-4 -4.7945 0.97399-6.5254 2.7051l-18.463 18.461c-1.7311 1.7309-2.7027 4.0794-2.7032 6.5274v18.461c5e-4 5.0978 4.1327 9.23 9.2305 9.2305h46.154v-46.154c-5e-4 -5.0978-4.1327-9.2299-9.2305-9.2305h-18.463zm46.154 0v46.154c5e-4 5.0978 4.1327 9.23 9.2305 9.2305h27.693v18.461h-36.924v18.463h46.154c5.0978-4.9e-4 9.23-4.1327 9.2305-9.2305v-83.078h-18.461v36.924h-18.463v-36.924h-18.461zm-683.08 18.461h18.461v18.463h-18.461zm221.54 0h18.463v18.463h-18.463zm73.848 0h18.461v18.463h-18.461zm160.74 0h5.4082v18.463h-18.461v-5.4082l13.053-13.055zm97.717 0h18.461v18.463h-18.461zm86.898 0h5.4082v18.463h-18.461v-5.4082l13.053-13.055z" color="#000000" fill="#f6d32d" stroke-linecap="square" stroke-linejoin="round" style="-inkscape-stroke:none"/>
  <path d="m341.39 57.212a9.221 9.221 0 0 0-9.2308 9.1947v18.462a9.221 9.221 0 0 0 9.2308 9.2308 9.221 9.221 0 0 0 9.2308-9.2308v-18.462a9.221 9.221 0 0 0-9.2308-9.1947zm-108.39 35.228a9.221 9.221 0 0 0-5.4447 1.7308 9.221 9.221 0 0 0-2.0192 12.873l10.817 14.928a9.221 9.221 0 0 0 12.909 2.0553 9.221 9.221 0 0 0 2.0192-12.873l-10.853-14.928a9.221 9.221 0 0 0-5.9856-3.6779 9.221 9.221 0 0 0-1.4424-0.10893zm216.13 0a9.221 9.221 0 0 0-6.8149 3.7861l-10.817 14.928a9.221 9.221 0 0 0 2.0192 12.873 9.221 9.221 0 0 0 12.873-2.0553l10.853-14.892a9.221 9.221 0 0 0-2.0192-12.909 9.221 9.221 0 0 0-6.0937-1.7308zm-107.74 18.966-38.942 19.651-43.017 6.9952-19.94 38.762-30.685 30.938 6.6346 43.089-6.7428 43.738 14.351 11.575h-29.207a9.221 9.221 0 0 0-9.1947 9.2308 9.221 9.221 0 0 0 9.1947 9.2308h295.1a9.221 9.221 0 0 0 9.1947-9.2308 9.221 9.221 0 0 0-9.1947-9.2308h-29.207l14.351-11.575-6.7428-43.738 6.6346-43.089-30.685-30.938-19.94-38.762-43.053-6.9952zm0 20.661 33.173 16.731 36.635 5.9495 16.983 33.029 26.178 26.358-5.661 36.707 5.5529 36.058-23.87 19.255h-177.94l-23.906-19.255 5.5529-36.058-5.6611-36.707 26.142-26.358 17.019-33.029 36.635-5.9495zm-175.71 52.536a9.221 9.221 0 0 0-8.4736 6.3822 9.221 9.221 0 0 0 5.9495 11.647l17.524 5.6971a9.221 9.221 0 0 0 11.611-5.9135 9.221 9.221 0 0 0-5.9135-11.647l-17.524-5.6971a9.221 9.221 0 0 0-3.1731-0.46874zm351.42 0.0369a9.221 9.221 0 0 0-3.1731 0.43273l-17.524 5.6962a9.221 9.221 0 0 0-5.9135 11.647 9.221 9.221 0 0 0 11.611 5.9135l17.524-5.6971a9.221 9.221 0 0 0 5.9135-11.647 9.221 9.221 0 0 0-8.4375-6.3462zm-231.02 38.546a9.221 9.221 0 0 0-9.2308 9.2308c0 35.599 28.944 64.543 64.543 64.543s64.543-28.944 64.543-64.543a9.221 9.221 0 0 0-9.2308-9.2308 9.221 9.221 0 0 0-9.1947 9.2308c0 25.702-20.416 46.082-46.118 46.082s-46.118-20.38-46.118-46.082a9.221 9.221 0 0 0-9.1947-9.2308z" color="#000000" fill="#3584e4" stroke-linecap="round" style="-inkscape-stroke:none"/>
 </g>
</svg>
