<?xml version="1.0" encoding="UTF-8" standalone="no"?>
<!-- Created with Inkscape (http://www.inkscape.org/) -->

<svg
   width="1920"
   height="400"
   viewBox="0 0 1920 400"
   version="1.1"
   id="svg5"
   xmlns="http://www.w3.org/2000/svg"
   xmlns:svg="http://www.w3.org/2000/svg">
  <defs
     id="defs2" />
  <g
     id="layer1">
    <path
       style="color:#000000;fill:#f6d32d;stroke-width:18.442px;-inkscape-stroke:none"
       d="m 433.60062,315.38828 30.56584,-24.65472 -6.14308,-39.89223 6.14308,-39.89223 -28.41711,-28.66329 -18.47907,-35.88365 -39.8365,-6.48643 -36.04301,-18.16831 -36.04117,18.16887 -39.83834,6.48587 -18.47908,35.88365 -28.4171,28.66329 6.14307,39.89223 -6.14307,39.89223 30.56584,24.65472 z"
       id="path6873" />
    <path
       id="path23859-3"
       style="color:#000000;fill:#3584e4;stroke-width:18.4615;stroke-linecap:square;stroke-linejoin:round;-inkscape-stroke:none"
       d="m 1043.0769,84.61585 c -5.098,4e-5 -9.2307,4.13278 -9.2307,9.23077 0,5.09799 4.1327,9.23073 9.2307,9.23077 5.098,2e-5 9.2308,-4.13274 9.2308,-9.23077 0,-5.09803 -4.1328,-9.23079 -9.2308,-9.23077 z m 64.6154,0 v 9.23077 27.69231 18.46154 64.61538 c 5e-4,5.09781 4.133,9.23028 9.2308,9.23077 h 18.4615 9.2308 v -18.46153 h -9.2308 -9.2308 v -55.38462 h 9.2308 9.2308 v -18.46154 h -9.2308 -9.2308 V 93.84662 84.61585 Z m 129.2308,0 v 9.23077 83.07693 18.46154 9.23076 9.23077 h 18.4615 v -9.23077 -9.23076 h 18.4616 v 9.23076 9.23077 h 18.4615 v -9.23077 -18.46153 c -5e-4,-5.09781 -4.133,-9.23028 -9.2308,-9.23077 h -17.3798 l 16.4063,-32.77645 c 2.2905,-4.56958 0.4314,-10.13048 -4.1467,-12.40385 -2.1847,-1.09178 -4.713,-1.27328 -7.0312,-0.50474 -2.3263,0.77964 -4.2466,2.45335 -5.3366,4.65144 l -10.2043,20.40859 V 93.84662 84.61585 Z m 83.0769,0 c -5.098,-2e-5 -9.2308,4.13274 -9.2308,9.23077 0,5.09803 4.1328,9.23079 9.2308,9.23077 5.098,2e-5 9.2308,-4.13274 9.2308,-9.23077 0,-5.09803 -4.1328,-9.23079 -9.2308,-9.23077 z m -683.07692,36.92308 c -5.0978,5.1e-4 -9.23026,4.13297 -9.23077,9.23077 v 36.92308 c 5.1e-4,5.0978 4.13297,9.23026 9.23077,9.23077 h 27.6923 v 18.46154 h -27.6923 -9.23077 v 18.46153 h 9.23077 36.92307 c 5.0978,-5.1e-4 9.23026,-4.13297 9.23077,-9.23077 v -36.92307 c -5.1e-4,-5.0978 -4.13297,-9.23026 -9.23077,-9.23077 h -27.6923 v -18.46154 h 27.6923 9.23077 v -18.46154 h -9.23077 z m 64.61538,0 v 9.23077 73.84615 9.23077 H 720 747.69231 c 5.0978,-5.1e-4 9.23026,-4.13297 9.23077,-9.23077 v -73.84615 -9.23077 h -18.46154 v 9.23077 64.61539 H 720 v -64.61539 -9.23077 z m 73.84616,0 v 18.46154 64.61538 9.23077 h 18.46153 v -9.23077 -64.61538 h 18.46154 v 64.61538 9.23077 h 18.46154 v -9.23077 -73.84615 c -5.1e-4,-5.0978 -4.13297,-9.23026 -9.23077,-9.23077 h -27.69231 z m 83.07692,0 c -5.0978,5.1e-4 -9.23026,4.13297 -9.23077,9.23077 v 73.84615 c 5.1e-4,5.0978 4.13297,9.23026 9.23077,9.23077 h 36.92308 c 5.0978,-5.1e-4 9.23025,-4.13297 9.23076,-9.23077 V 130.7697 c -5.1e-4,-5.0978 -4.13296,-9.23026 -9.23076,-9.23077 z m 101.53846,0 v 18.46154 55.38462 18.46153 9.23077 9.23077 h 18.46154 v -9.23077 -9.23077 h 27.69226 c 5.0978,-4.9e-4 9.2303,-4.13296 9.2308,-9.23077 V 130.7697 c -5e-4,-5.09781 -4.133,-9.23028 -9.2308,-9.23077 h -27.69226 z m 73.8462,0 v 9.23077 73.84615 9.23077 h 18.4615 v -9.23077 -73.84615 -9.23077 z m 138.4615,0 c -5.0978,4.9e-4 -9.2303,4.13296 -9.2308,9.23077 v 73.84615 c 5e-4,5.09781 4.133,9.23028 9.2308,9.23077 h 36.9231 c 5.0978,-5.5e-4 9.2302,-4.13299 9.2307,-9.23077 V 130.7697 c -5e-4,-5.09778 -4.1329,-9.23022 -9.2307,-9.23077 z m 138.4615,0 v 9.23077 73.84615 9.23077 h 18.4616 v -9.23077 -73.84615 -9.23077 z m 73.8462,0 v 18.46154 55.38462 18.46153 9.23077 9.23077 h 18.4615 v -9.23077 -9.23077 h 27.6923 c 5.0978,-4.9e-4 9.2303,-4.13296 9.2308,-9.23077 V 130.7697 c -5e-4,-5.09781 -4.133,-9.23028 -9.2308,-9.23077 h -27.6923 z m 83.0769,0 c -5.0978,4.9e-4 -9.2303,4.13296 -9.2308,9.23077 v 73.84615 c 5e-4,5.09781 4.133,9.23028 9.2308,9.23077 h 36.9231 c 5.0978,-4.9e-4 9.2303,-4.13296 9.2308,-9.23077 V 130.7697 c -5e-4,-5.09781 -4.133,-9.23028 -9.2308,-9.23077 z m 64.6154,0 v 18.46154 64.61538 9.23077 h 18.4615 v -9.23077 -64.61538 h 18.4616 v 64.61538 9.23077 h 18.4615 v -9.23077 -73.84615 c -5e-4,-5.09781 -4.133,-9.23028 -9.2308,-9.23077 h -27.6923 z m 83.0769,0 v 18.46154 h 9.2308 18.4615 v 18.46154 h -27.6923 c -5.0978,4.9e-4 -9.2303,4.13296 -9.2308,9.23077 v 36.92307 c 5e-4,5.09781 4.133,9.23028 9.2308,9.23077 46.1539,0 46.1539,0 46.1539,0 V 176.92355 158.46201 130.7697 c -5e-4,-5.09781 -4.133,-9.23028 -9.2308,-9.23077 h -27.6923 z m -747.69229,18.46154 h 18.46154 v 55.38462 h -18.46154 z m 110.76923,0 h 18.46154 v 55.38462 h -18.46154 z m 203.07696,0 H 1200 v 55.38462 h -18.4615 z m 221.5384,0 h 18.4616 v 55.38462 h -18.4616 z m 73.8462,0 h 18.4615 v 55.38462 h -18.4615 z m 147.6923,36.92308 h 18.4615 v 18.46154 h -18.4615 z" />
    <path
       id="path2009-6"
       style="color:#000000;fill:#f6d32d;stroke-width:18.4615;stroke-linecap:square;stroke-linejoin:round;-inkscape-stroke:none"
       d="m 627.69231,232.30816 v 9.23077 9.23077 18.46154 46.15385 a 9.2316923,9.2316923 0 0 0 9.23077,9.23076 h 18.46154 9.23076 v -18.46153 h -9.23076 -9.23077 v -36.92308 h 9.23077 9.23076 V 250.7697 h -9.23076 -9.23077 v -9.23077 -9.23077 z m 129.23077,0 v 9.23077 46.15385 18.46154 9.23077 9.23076 h 18.46154 v -9.23076 -9.23077 h 18.46153 v 9.23077 9.23076 h 18.46154 v -9.23076 -18.46154 a 9.2316923,9.2316923 0 0 0 -9.23077,-9.23077 H 788.4375 l 11.9351,-11.93509 a 9.2307692,9.2307692 0 0 0 0,-13.0529 9.2307692,9.2307692 0 0 0 -6.52645,-2.70432 9.2307692,9.2307692 0 0 0 -6.52645,2.70432 l -11.93508,11.93511 v -33.10097 -9.23077 z m 83.07692,0 a 9.2307692,9.2307692 0 0 0 -9.23077,9.23077 A 9.2307692,9.2307692 0 0 0 840,250.7697 9.2307692,9.2307692 0 0 0 849.23077,241.53893 9.2307692,9.2307692 0 0 0 840,232.30816 Z m 433.8462,0 v 9.23077 27.69231 h -27.6924 a 9.2316923,9.2316923 0 0 0 -9.2307,9.23077 v 36.92308 a 9.2316923,9.2316923 0 0 0 9.2307,9.23076 h 36.9231 9.2308 v -9.23076 -27.69231 -18.46154 -27.69231 -9.23077 z m 230.7692,0 a 9.2316923,9.2316923 0 0 0 -9.2308,9.23077 v 18.46154 9.23077 h 18.4616 v -9.23077 -9.23077 h 18.4615 v 6.45432 l -35.3726,53.04087 a 9.2316923,9.2316923 0 0 0 7.6803,14.35096 h 36.9231 9.2307 v -18.46153 h -9.2307 -19.6875 l 27.3678,-41.03365 a 9.2316923,9.2316923 0 0 0 1.5504,-5.1202 v -18.46154 a 9.2316923,9.2316923 0 0 0 -9.2307,-9.23077 z m 73.8461,0 a 9.2316923,9.2316923 0 0 0 -9.2307,9.23077 v 73.84616 a 9.2316923,9.2316923 0 0 0 9.2307,9.23076 h 36.9231 a 9.2316923,9.2316923 0 0 0 9.2308,-9.23076 v -73.84616 a 9.2316923,9.2316923 0 0 0 -9.2308,-9.23077 z m 73.8462,0 a 9.2316923,9.2316923 0 0 0 -9.2308,9.23077 v 18.46154 9.23077 h 18.4616 v -9.23077 -9.23077 H 1680 v 6.45432 l -35.3726,53.04087 a 9.2316923,9.2316923 0 0 0 7.6803,14.35096 h 36.9231 9.2307 v -18.46153 h -9.2307 -19.6875 l 27.3678,-41.03365 a 9.2316923,9.2316923 0 0 0 1.5504,-5.1202 v -18.46154 a 9.2316923,9.2316923 0 0 0 -9.2307,-9.23077 z m 93.2091,0.072 a 9.2316923,9.2316923 0 0 0 -7.4279,2.63221 l -18.4615,18.46154 -6.5264,6.52656 13.0528,13.05288 6.5265,-6.52643 2.7043,-2.70434 v 42.33174 h -9.2308 -9.2307 v 18.46153 h 9.2307 9.2308 18.4616 9.2307 9.2308 v -18.46153 h -9.2308 -9.2307 v -64.61539 a 9.2316923,9.2316923 0 0 0 -5.6972,-8.50962 9.2316923,9.2316923 0 0 0 -2.6322,-0.64911 z m -157.8245,18.38954 h 18.4615 v 55.38462 h -18.4615 z m -895.38461,18.46154 a 9.2316923,9.2316923 0 0 0 -9.23077,9.23077 v 36.92308 a 9.2316923,9.2316923 0 0 0 9.23077,9.23076 h 36.92308 a 9.2316923,9.2316923 0 0 0 9.23077,-9.23076 v -36.92308 a 9.2316923,9.2316923 0 0 0 -9.23077,-9.23077 z m 138.46154,0 v 9.23077 36.92308 9.23076 h 18.46154 v -9.23076 -36.92308 -9.23077 z m 73.84615,0 v 18.46154 18.46154 18.46153 9.23077 9.23077 h 18.46154 v -9.23077 -9.23077 h 27.69231 A 9.2316923,9.2316923 0 0 0 960,315.38509 v -36.92308 a 9.2316923,9.2316923 0 0 0 -9.23077,-9.23077 h -27.69231 z m 83.07693,0 a 9.2316923,9.2316923 0 0 0 -9.23077,9.23077 v 36.92308 a 9.2316923,9.2316923 0 0 0 9.23077,9.23076 h 36.92309 a 9.2316923,9.2316923 0 0 0 9.2308,-9.23076 v -36.92308 a 9.2316923,9.2316923 0 0 0 -9.2308,-9.23077 z m 64.61539,0 v 18.46154 27.69231 9.23076 h 18.4615 v -9.23076 -27.69231 h 18.4616 v 27.69231 9.23076 h 18.4615 v -9.23076 -36.92308 a 9.2316923,9.2316923 0 0 0 -9.2308,-9.23077 h -27.6923 z m 101.5385,0 a 9.2316923,9.2316923 0 0 0 -6.5265,2.70432 l -18.4615,18.46154 a 9.2316923,9.2316923 0 0 0 -2.7044,6.52645 v 18.46154 a 9.2316923,9.2316923 0 0 0 9.2308,9.23076 h 27.6923 9.2308 9.2308 v -18.46153 -27.69231 a 9.2316923,9.2316923 0 0 0 -9.2308,-9.23077 z m 184.6153,0 a 9.2316923,9.2316923 0 0 0 -6.5264,2.70432 l -18.4615,18.46154 a 9.2316923,9.2316923 0 0 0 -2.7044,6.52645 v 18.46154 a 9.2316923,9.2316923 0 0 0 9.2308,9.23076 h 27.6923 9.2308 9.2307 v -18.46153 -27.69231 a 9.2316923,9.2316923 0 0 0 -9.2307,-9.23077 z m 46.1539,0 v 9.23077 36.92308 a 9.2316923,9.2316923 0 0 0 9.2308,9.23076 h 27.6923 v 18.46154 h -27.6923 -9.2308 v 18.46154 h 9.2308 36.923 A 9.2316923,9.2316923 0 0 0 1440,352.30816 v -27.69231 -18.46153 -27.69231 -9.23077 h -18.4615 v 9.23077 27.69231 h -18.4616 v -27.69231 -9.23077 z M 701.53846,287.69278 H 720 v 18.46154 h -18.46154 z m 221.53846,0 h 18.46154 v 18.46154 h -18.46154 z m 73.84616,0 h 18.46152 v 18.46154 h -18.46152 z m 160.74522,0 h 5.4086 v 18.46154 h -18.4615 v -5.40866 z m 97.7163,0 h 18.4616 v 18.46154 h -18.4616 z m 86.899,0 h 5.4087 v 18.46154 h -18.4615 v -5.40866 z" />
    <path
       id="path6923"
       style="color:#000000;fill:#3584e4;stroke-width:18.4615;stroke-linecap:round;-inkscape-stroke:none"
       d="m 341.39424,57.212005 a 9.2209846,9.2209846 0 0 0 -9.23077,9.194715 v 18.46154 a 9.2209846,9.2209846 0 0 0 9.23077,9.23077 9.2209846,9.2209846 0 0 0 9.23077,-9.23077 V 66.40672 a 9.2209846,9.2209846 0 0 0 -9.23077,-9.194715 z M 233.00481,92.44037 a 9.2209846,9.2209846 0 0 0 -5.44471,1.73077 9.2209846,9.2209846 0 0 0 -2.01923,12.8726 l 10.8173,14.92789 a 9.2209846,9.2209846 0 0 0 12.90865,2.05529 9.2209846,9.2209846 0 0 0 2.01924,-12.8726 L 240.4327,96.22643 a 9.2209846,9.2209846 0 0 0 -5.98558,-3.67787 9.2209846,9.2209846 0 0 0 -1.4424,-0.10893 z m 216.12981,0 a 9.2209846,9.2209846 0 0 0 -6.81492,3.78606 l -10.81729,14.92789 a 9.2209846,9.2209846 0 0 0 2.01923,12.8726 9.2209846,9.2209846 0 0 0 12.8726,-2.05529 l 10.85335,-14.89183 a 9.2209846,9.2209846 0 0 0 -2.01923,-12.90866 9.2209846,9.2209846 0 0 0 -6.09374,-1.73077 z m -107.74038,18.96635 -38.94233,19.65144 -43.01682,6.99519 -19.9399,38.76203 -30.68509,30.9375 6.63461,43.08893 -6.74278,43.73799 14.35095,11.57452 h -29.20673 a 9.2209846,9.2209846 0 0 0 -9.19471,9.23077 9.2209846,9.2209846 0 0 0 9.19471,9.23076 h 295.09616 a 9.2209846,9.2209846 0 0 0 9.19471,-9.23076 9.2209846,9.2209846 0 0 0 -9.19471,-9.23077 h -29.20673 l 14.35097,-11.57452 -6.7428,-43.73799 6.63461,-43.08893 -30.68509,-30.9375 -19.9399,-38.76203 -43.0529,-6.99519 z m 0,20.66105 33.17306,16.73077 36.63463,5.94952 16.98316,33.02886 26.17789,26.35817 -5.66105,36.70672 5.55288,36.05769 -23.87019,19.25482 H 252.4399 l -23.90625,-19.25482 5.5529,-36.05769 -5.66107,-36.70672 26.14182,-26.35817 17.01925,-33.02886 36.63459,-5.94952 z M 165.6851,184.60384 a 9.2209846,9.2209846 0 0 0 -8.47356,6.38221 9.2209846,9.2209846 0 0 0 5.94952,11.64663 l 17.52404,5.69712 a 9.2209846,9.2209846 0 0 0 11.61058,-5.91347 9.2209846,9.2209846 0 0 0 -5.91347,-11.64663 l -17.52404,-5.69712 a 9.2209846,9.2209846 0 0 0 -3.17307,-0.46874 z m 351.41827,0.0369 a 9.2209846,9.2209846 0 0 0 -3.17307,0.43273 l -17.52405,5.6962 a 9.2209846,9.2209846 0 0 0 -5.91347,11.64663 9.2209846,9.2209846 0 0 0 11.61059,5.91347 l 17.52403,-5.69712 a 9.2209846,9.2209846 0 0 0 5.91347,-11.64663 9.2209846,9.2209846 0 0 0 -8.4375,-6.34615 z M 286.08174,223.1864 a 9.2209846,9.2209846 0 0 0 -9.23077,9.23077 c 0,35.59945 28.94377,64.54327 64.54327,64.54327 35.59948,0 64.54326,-28.94382 64.54326,-64.54327 a 9.2209846,9.2209846 0 0 0 -9.23077,-9.23077 9.2209846,9.2209846 0 0 0 -9.19472,9.23077 c 0,25.70163 -20.41615,46.08173 -46.11777,46.08173 -25.70164,0 -46.11779,-20.3801 -46.11779,-46.08173 a 9.2209846,9.2209846 0 0 0 -9.19471,-9.23077 z" />
  </g>
</svg>
