<svg width="24" height="24" fill="currentColor" version="1.1" viewBox="0 0 24 24" xmlns="http://www.w3.org/2000/svg"><path d="m18.956 5.6932c-1.3038-0.59631-2.6885-1.0309-4.1338-1.2735-0.18194 0.31332-0.38409 0.73781-0.52559 1.0714-1.5373-0.22236-3.0634-0.22236-4.5795 0-0.14151-0.33354-0.35377-0.75803-0.52559-1.0714-1.4554 0.24257-2.8401 0.67718-4.1348 1.2735-2.6177 3.8609-3.3252 7.6308-2.9715 11.35 1.7384 1.2634 3.4162 2.0316 5.0647 2.5369 0.40428-0.54581 0.76814-1.132 1.0815-1.7485-0.59632-0.22237-1.1623-0.49527-1.7081-0.81871 0.1415-0.10101 0.28301-0.21219 0.4144-0.32338 3.2949 1.506 6.8637 1.506 10.118 0 0.14151 0.11118 0.2729 0.22237 0.41441 0.32338-0.54581 0.32344-1.1118 0.59635-1.7081 0.81871 0.31334 0.6165 0.67721 1.2027 1.0814 1.7485 1.6475-0.50538 3.3354-1.2736 5.0647-2.5369 0.43456-4.3056-0.68829-8.0452-2.9523-11.35zm-10.27 9.0559c-0.9905 0-1.7991-0.89951-1.7991-2.0012 0-1.1017 0.78835-2.0012 1.7991-2.0012 1.0006 0 1.8192 0.89958 1.799 2.0012 0 1.1017-0.79843 2.0012-1.799 2.0012zm6.6414 0c-0.99054 0-1.8001-0.89951-1.8001-2.0012 0-1.1017 0.78937-2.0012 1.8001-2.0012 1.0006 0 1.8192 0.89958 1.799 2.0012 0 1.1017-0.78833 2.0012-1.799 2.0012z"/></svg>
