<?xml version="1.0" encoding="UTF-8"?>
<svg width="32" height="32" fill="currentColor" version="1.1" viewBox="0 0 34 34" xmlns="http://www.w3.org/2000/svg">
 <path d="m31.961 8.1219c-0.46466-3.4239-3.4749-6.1222-7.0434-6.6452-0.60207-0.088351-2.8831-0.40988-8.1672-0.40988h-0.03943c-5.2856 0-6.4192 0.32153-7.0213 0.40988-3.4691 0.50838-6.6372 2.9329-7.4058 6.3975-0.3697 1.7061-0.40916 3.5977-0.34048 5.3328 0.097907 2.4883 0.1169 4.972 0.34486 7.4504 0.1576 1.6461 0.43254 3.2791 0.82271 4.8866 0.73064 2.9691 3.6882 5.4398 6.5862 6.4481 3.1024 1.0513 6.4387 1.2258 9.6356 0.504 0.35168-0.08111 0.69945-0.17522 1.0434-0.28242 0.77593-0.24478 1.6863-0.51849 2.3556-0.99938 0.0092-0.0067 0.0167-0.01547 0.02201-0.0255 0.0053-0.01002 0.0083-0.02112 0.0087-0.03242v-2.4014c-1.27e-4 -0.01059-0.0027-0.02098-0.0074-0.03047-0.0048-0.0095-0.01161-0.0178-0.01996-0.02434-0.0084-0.0065-0.01818-0.0111-0.02863-0.01339-0.01041-0.0023-0.02121-0.0023-0.03161 1.27e-4 -2.0482 0.48492-4.147 0.728-6.2526 0.72418-3.624 0-4.5986-1.7047-4.8777-2.4144-0.22434-0.61337-0.3668-1.2532-0.42374-1.9032-5.96e-4 -0.01092 0.0014-0.0218 0.0059-0.03178 0.0045-0.01002 0.01121-0.01882 0.01976-0.02575 0.0085-0.0069 0.01861-0.01172 0.02936-0.01407 0.0108-0.0023 0.02197-0.0021 0.03263 6.37e-4 2.0141 0.48161 4.0787 0.72473 6.1507 0.72418 0.49831 0 0.99513 0 1.4934-0.01304 2.0838-0.05791 4.2803-0.16367 6.3304-0.56051 0.05112-0.01011 0.10227-0.01882 0.14612-0.03187 3.2338-0.61554 6.3113-2.5477 6.624-7.4402 0.01169-0.19264 0.04091-2.0176 0.04091-2.2174 0.0014-0.67927 0.22064-4.8187-0.03216-7.362zm-4.9771 12.208h-3.4004v-8.2556c0-1.738-0.73064-2.6244-2.2168-2.6244-1.6337 0-2.452 1.0486-2.452 3.1197v4.5191h-3.3799v-4.5191c0-2.0712-0.81978-3.1197-2.4535-3.1197-1.4774 0-2.2153 0.88636-2.2168 2.6244v8.2556h-3.3974v-8.5063c0-1.738 0.44762-3.1188 1.3429-4.1423 0.92354-1.0211 2.1349-1.5454 3.6386-1.5454 1.7404 0 3.0555 0.66333 3.9323 1.9886l0.84608 1.4078 0.84757-1.4078c0.87676-1.3253 2.1919-1.9886 3.9294-1.9886 1.5022 0 2.7136 0.52431 3.6401 1.5454 0.89524 1.0225 1.3429 2.4033 1.3429 4.1423z" stroke-width=".42489"/>
</svg>
