<svg width="24" height="24" fill="currentColor" version="1.1" viewBox="0 0 24 24" xmlns="http://www.w3.org/2000/svg"><path d="m12 2.0002c-5.5227 0-9.9999 4.4771-9.9999 9.9998 0 5.5229 4.4772 9.9997 9.9999 9.9997 5.5233 0 10-4.4768 10-9.9997 0-5.5223-4.4768-9.9993-10-9.9993zm4.5859 14.423c-0.17912 0.29375-0.56362 0.3869-0.85738 0.20658-2.3479-1.4341-5.3036-1.7589-8.7844-0.96366-0.33543 0.07642-0.66978-0.13374-0.74621-0.46929-0.07678-0.33555 0.13255-0.6699 0.46881-0.74633 3.8093-0.87028 7.0767-0.49556 9.7126 1.1153 0.29375 0.18031 0.3869 0.56363 0.20658 0.85738zm1.224-2.7228c-0.22569 0.36683-0.70573 0.48266-1.0723 0.25698-2.688-1.6522-6.7854-2.1307-9.9647-1.1656-0.41233 0.12455-0.84783-0.10783-0.97297-0.51944-0.12419-0.41233 0.10831-0.84699 0.51992-0.97237 3.6317-1.1019 8.1465-0.56816 11.233 1.3287 0.3666 0.22569 0.48242 0.70573 0.25674 1.0718zm0.10508-2.8353c-3.2229-1.9143-8.5404-2.0903-11.617-1.1564-0.49413 0.14986-1.0167-0.12908-1.1664-0.62321-0.14974-0.49437 0.12897-1.0166 0.62345-1.1668 3.5323-1.0723 9.4044-0.86514 13.115 1.3377 0.44541 0.26378 0.59109 0.8378 0.32719 1.2817-0.26271 0.44445-0.83827 0.59097-1.2813 0.32707z"/></svg>
