<svg width="24" height="24" fill="currentColor" version="1.1" viewBox="0 0 24 24" xmlns="http://www.w3.org/2000/svg">
 <path d="m11.484 2.0137c-5.1327 0.2585-9.2221 4.3515-9.4727 9.4863h3.0156a7 10 0 0 1 6.4727-9.4531v-0.033203c-0.005178 2.528e-4 -0.010449-2.607e-4 -0.015625 0zm1.0156 0v0.013672a7 10 0 0 1 6.4746 9.4727h3.0137c-0.25104-5.1397-4.3484-9.2353-9.4883-9.4863zm0 1.0195v8.4668h5.4746a6 9 0 0 0-5.4746-8.4668zm-1 0.021484a6 9 0 0 0-5.4746 8.4453h5.4746v-8.4453zm-9.4883 9.4453c0.25104 5.1397 4.3484 9.2353 9.4883 9.4863v-0.033203a7 10 0 0 1-6.4727-9.4531h-3.0156zm4.0137 0a6 9 0 0 0 5.4746 8.4453v-8.4453h-5.4746zm6.4746 0v8.4453a6 9 0 0 0 5.4746-8.4453h-5.4746zm6.4727 0a7 10 0 0 1-6.4727 9.4531v0.033203c5.1398-0.25101 9.2372-4.3466 9.4883-9.4863h-3.0156z"/>
</svg>
