<svg width="24" height="24" version="1.1" viewBox="0 0 24 24" xmlns="http://www.w3.org/2000/svg" fill="currentColor">
 <path d="m11.988 3.596s-7.4958 0.015152-9.3582 0.52309a3.0168 3.0168 0 0 0-2.1242 2.1242c-0.56335 3.3093-0.78198 8.3518 0.015332 11.529a3.0168 3.0168 0 0 0 2.1242 2.1239c1.8624 0.50794 9.3582 0.50806 9.3582 0.50806s7.4961-1.2e-4 9.3585-0.50806a3.0168 3.0168 0 0 0 2.1242-2.1239c0.59413-3.3139 0.77706-8.3533-0.015632-11.544a3.0168 3.0168 0 0 0-2.1239-2.1242c-1.8624-0.50794-9.3585-0.50776-9.3585-0.50776zm-2.3858 4.8022 6.2185 3.6018-6.2185 3.6018z"/>
</svg>
